{
    "asset" : {
        "generator" : "Khronos glTF Blender I/O v3.3.32",
        "version" : "2.0"
    },
    "extensionsUsed" : [
        "KHR_materials_specular",
        "KHR_materials_ior"
    ],
    "scene" : 0,
    "scenes" : [
        {
            "name" : "Scene",
            "nodes" : [
                0
            ]
        }
    ],
    "nodes" : [
        {
            "mesh" : 0,
            "name" : "?????",
            "rotation" : [
                0.7071068286895752,
                0,
                0,
                0.7071067094802856
            ]
        }
    ],
    "materials" : [
        {
            "doubleSided" : true,
            "extensions" : {
                "KHR_materials_specular" : {
                    "specularColorFactor" : [
                        0.8299751509200964,
                        0.8299751509200964,
                        0.8299751509200964
                    ]
                },
                "KHR_materials_ior" : {
                    "ior" : 1.4500000476837158
                }
            },
            "name" : "wire_088144225",
            "pbrMetallicRoughness" : {
                "baseColorFactor" : [
                    0.38978567719459534,
                    0.6390752196311951,
                    1,
                    1
                ],
                "metallicFactor" : 0,
                "roughnessFactor" : 0.8211145401000977
            }
        }
    ],
    "meshes" : [
        {
            "name" : "?????",
            "primitives" : [
                {
                    "attributes" : {
                        "POSITION" : 0,
                        "NORMAL" : 1,
                        "TEXCOORD_0" : 2
                    },
                    "indices" : 3,
                    "material" : 0
                }
            ]
        }
    ],
    "accessors" : [
        {
            "bufferView" : 0,
            "componentType" : 5126,
            "count" : 789381,
            "max" : [
                52.405181884765625,
                41.05173110961914,
                0.07371199876070023
            ],
            "min" : [
                -53.094844818115234,
                -40.94827651977539,
                -100.23786163330078
            ],
            "type" : "VEC3"
        },
        {
            "bufferView" : 1,
            "componentType" : 5126,
            "count" : 789381,
            "type" : "VEC3"
        },
        {
            "bufferView" : 2,
            "componentType" : 5126,
            "count" : 789381,
            "type" : "VEC2"
        },
        {
            "bufferView" : 3,
            "componentType" : 5125,
            "count" : 4065264,
            "type" : "SCALAR"
        }
    ],
    "bufferViews" : [
        {
            "buffer" : 0,
            "byteLength" : 9472572,
            "byteOffset" : 0,
            "target" : 34962
        },
        {
            "buffer" : 0,
            "byteLength" : 9472572,
            "byteOffset" : 9472572,
            "target" : 34962
        },
        {
            "buffer" : 0,
            "byteLength" : 6315048,
            "byteOffset" : 18945144,
            "target" : 34962
        },
        {
            "buffer" : 0,
            "byteLength" : 16261056,
            "byteOffset" : 25260192,
            "target" : 34963
        }
    ],
    "buffers" : [
        {
            "byteLength" : 41521248,
            "uri" : "Kazan.bin"
        }
    ]
}
